<svg width="152" height="35" viewBox="0 0 152 35" fill="none" xmlns="http://www.w3.org/2000/svg">
<path d="M12.498 26.408C18.788 26.408 23.48 22.702 24.364 17.092H18.652C17.972 19.574 15.694 21.104 12.6 21.104C8.554 21.104 6.038 18.146 6.038 13.42C6.038 8.626 8.52 5.736 12.6 5.736C15.626 5.736 17.768 7.164 18.516 9.68H24.33C23.548 4.036 19.026 0.431999 12.736 0.431999C5.222 0.431999 0.224 5.6 0.224 13.454C0.224 21.41 4.95 26.408 12.498 26.408ZM32.2037 26.442C34.7537 26.442 36.9977 25.32 37.5417 23.756L37.8817 26H42.5057V16.072C42.5057 11.21 39.7177 8.456 34.7877 8.456C29.9257 8.456 26.7637 10.972 26.7637 14.814H31.1157C31.1157 13.284 32.3057 12.434 34.5157 12.434C36.3857 12.434 37.4057 13.318 37.4057 14.984V15.256L32.6457 15.63C28.5657 15.936 26.3557 17.874 26.3557 21.002C26.3557 24.334 28.5997 26.442 32.2037 26.442ZM34.0397 22.566C32.4417 22.566 31.6937 21.988 31.6937 20.764C31.6937 19.676 32.5097 19.166 34.7877 18.962L37.4397 18.724V19.642C37.4397 21.58 36.0457 22.566 34.0397 22.566ZM52.963 26V13.352H56.193V9H52.963V3.73H47.727V9H44.497V13.352H47.727V26H52.963ZM57.4622 17.432C57.4622 22.872 60.9302 26.442 66.3022 26.442C71.0622 26.442 74.5302 23.518 74.8702 19.234H69.6002C69.2602 20.9 68.1382 21.75 66.3022 21.75C64.0582 21.75 62.7322 20.152 62.7322 17.432C62.7322 14.814 64.1602 13.148 66.3702 13.148C68.1722 13.148 69.2262 13.964 69.6002 15.664H74.8702C74.5302 11.21 71.1982 8.456 66.1662 8.456C61.0662 8.456 57.4622 12.196 57.4622 17.432ZM82.9736 26V16.684C82.9736 14.576 84.2996 13.216 86.3736 13.216C88.1756 13.216 89.3656 14.61 89.3656 16.752V26H94.6016V15.494C94.6016 11.04 92.2556 8.456 88.2096 8.456C85.9996 8.456 84.0616 9.306 83.0076 10.768V0.364H77.7376V26H82.9736Z" fill="#1070FF"/>
<path d="M107.831 16.548C107.831 22.566 111.877 26.408 118.167 26.408C124.491 26.408 128.571 22.532 128.571 16.548V0.84H123.063V16.174C123.063 19.268 121.295 21.07 118.167 21.07C115.073 21.07 113.339 19.336 113.339 16.174V0.84H107.831V16.548ZM132.988 34.16H138.224V24.3C139.21 25.592 141.386 26.476 143.732 26.476C148.798 26.476 151.722 22.6 151.722 17.228C151.722 11.754 148.424 8.456 143.698 8.456C141.284 8.456 139.142 9.51 138.19 11.074L137.918 9H132.988V34.16ZM138.258 17.5C138.258 14.95 139.958 13.25 142.406 13.25C144.888 13.25 146.452 14.984 146.452 17.5C146.452 20.016 144.888 21.75 142.406 21.75C139.958 21.75 138.258 20.05 138.258 17.5Z" fill="#151517"/>
</svg>
