<svg width="41" height="41" viewBox="0 0 41 41" fill="none" xmlns="http://www.w3.org/2000/svg">
<circle cx="20.5" cy="20.5" r="18.5" fill="white" stroke="#1070FF" stroke-width="4"/>
<path fill-rule="evenodd" clip-rule="evenodd" d="M26.194 17.5634C26.3963 17.4992 26.5647 17.3573 26.6624 17.1689C26.76 16.9805 26.7788 16.761 26.7146 16.5588C26.6504 16.3565 26.5085 16.188 26.3201 16.0904C26.1317 15.9928 25.9122 15.974 25.71 16.0382L24.9474 16.2802C24.7451 16.3444 24.5766 16.4863 24.479 16.6747C24.3814 16.8631 24.3626 17.0826 24.4268 17.2849C24.491 17.4871 24.6329 17.6556 24.8213 17.7532C25.0097 17.8508 25.2291 17.8696 25.4314 17.8054L26.194 17.5626L26.194 17.5634ZM23.7793 14.2751C23.8023 14.1723 23.8049 14.0659 23.7867 13.9621C23.7686 13.8583 23.7301 13.7592 23.6735 13.6703C23.6169 13.5814 23.5433 13.5046 23.457 13.4442C23.3706 13.3838 23.2731 13.3411 23.1702 13.3185C23.0673 13.2959 22.9609 13.2939 22.8572 13.3125C22.7535 13.3312 22.6545 13.3701 22.5659 13.4271C22.4773 13.4841 22.4008 13.5581 22.3408 13.6447C22.2809 13.7313 22.2386 13.829 22.2165 13.932L22.0445 14.7134C22.0001 14.9202 22.0395 15.1362 22.1539 15.3141C22.2683 15.492 22.4486 15.6173 22.6552 15.6627C22.8618 15.7081 23.0779 15.6698 23.2564 15.5562C23.4348 15.4426 23.561 15.2629 23.6073 15.0565L23.7801 14.2751L23.7793 14.2751ZM24.5537 21.2984C24.6313 21.3693 24.7221 21.4241 24.8209 21.4598C24.9197 21.4956 25.0246 21.5115 25.1296 21.5067C25.2346 21.5019 25.3375 21.4765 25.4327 21.4319C25.5278 21.3873 25.6133 21.3243 25.6841 21.2467C25.7549 21.1691 25.8098 21.0783 25.8455 20.9795C25.8812 20.8807 25.8972 20.7758 25.8924 20.6708C25.8876 20.5658 25.8621 20.4628 25.8175 20.3677C25.7729 20.2726 25.71 20.1871 25.6324 20.1163L25.0417 19.5769C24.9641 19.506 24.8733 19.4511 24.7744 19.4154C24.6756 19.3796 24.5707 19.3636 24.4657 19.3684C24.3607 19.3732 24.2576 19.3986 24.1624 19.4431C24.0672 19.4877 23.9818 19.5506 23.9109 19.6283C23.84 19.7059 23.7851 19.7967 23.7493 19.8955C23.7135 19.9944 23.6976 20.0993 23.7023 20.2043C23.7071 20.3093 23.7325 20.4123 23.7771 20.5075C23.8217 20.6027 23.8846 20.6882 23.9622 20.7591L24.5537 21.2984V21.2984ZM18.6454 15.9039L19.2361 16.4433C19.3927 16.5866 19.5999 16.6617 19.812 16.6523C20.0241 16.6428 20.2237 16.5495 20.367 16.3928C20.5102 16.2361 20.5854 16.029 20.5759 15.8169C20.5664 15.6048 20.4731 15.4052 20.3164 15.2619L19.7257 14.7218C19.569 14.5786 19.3618 14.5036 19.1497 14.5132C18.9376 14.5228 18.738 14.6163 18.5949 14.7731C18.4517 14.9298 18.3767 15.137 18.3864 15.3491C18.396 15.5612 18.4895 15.7608 18.6462 15.9039L18.6454 15.9039ZM22.894 18.2738C22.9456 18.1259 22.9526 17.9661 22.9142 17.8143C22.8758 17.6625 22.7937 17.5253 22.6781 17.4197C22.5624 17.3141 22.4183 17.2448 22.2637 17.2203C22.109 17.1958 21.9505 17.2173 21.8079 17.282L13.9613 20.8414C13.8208 20.9052 13.7018 21.0082 13.6186 21.138C13.5353 21.2678 13.4914 21.419 13.492 21.5732C13.4927 21.7274 13.5379 21.8782 13.6222 22.0073C13.7066 22.1364 13.8265 22.2384 13.9674 22.301L16.2224 23.3038L13.9184 25.8253C13.7753 25.982 13.7004 26.1892 13.7101 26.4012C13.7198 26.6132 13.8133 26.8126 13.9701 26.9557C14.1268 27.0987 14.334 27.1736 14.546 27.1639C14.758 27.1542 14.9574 27.0607 15.1005 26.904L17.4045 24.3817L18.6067 26.5374C18.6819 26.6719 18.7944 26.7818 18.9306 26.8538C19.0667 26.9259 19.2208 26.9571 19.3743 26.9437C19.5278 26.9303 19.6742 26.8729 19.7958 26.7783C19.9175 26.6838 20.0092 26.5561 20.06 26.4106L22.894 18.2738V18.2738Z" fill="#1070FF"/>
</svg>
